# xmcd
#
# Track frame offsets: 
#        150
#        13742
#        28364
#        46697
#        63637
#        79396
#        98303
#        112330
#        131555
#        149400
#
# Disc length: 2203 seconds
#
# Revision: 0
# Processed by: cddbd v1.5.2PL0 Copyright (c) Steve Scherf et al.
# Submitted via: ExactAudioCopy v0.99pb4
#
DISCID=8c08990a
DTITLE=John Rush - They Don't Know My Name
DYEAR=2000
DGENRE=Country
TTITLE0=Fifty Dollars
TTITLE1=Another One Taken Tonight
TTITLE2=That's OK
TTITLE3=Nothing Left To Hide
TTITLE4=The Sleep
TTITLE5=How Can You Live With Yourself
TTITLE6=Like Me
TTITLE7=Walk With Me
TTITLE8=Hello Ray
TTITLE9=Soul Impact
EXTD=
EXTT0=
EXTT1=
EXTT2=
EXTT3=
EXTT4=
EXTT5=
EXTT6=
EXTT7=
EXTT8=
EXTT9=
PLAYORDER=
